<?xml version="1.0" encoding="UTF-8" standalone="no"?>
<!-- Created with Inkscape (http://www.inkscape.org/) -->

<svg
   version="1.1"
   id="svg1"
   width="501.80099"
   height="81.932999"
   viewBox="0 0 501.80101 81.932999"
   sodipodi:docname="logo milo.svg"
   inkscape:version="1.3 (0e150ed6c4, 2023-07-21)"
   xml:space="preserve"
   xmlns:inkscape="http://www.inkscape.org/namespaces/inkscape"
   xmlns:sodipodi="http://sodipodi.sourceforge.net/DTD/sodipodi-0.dtd"
   xmlns="http://www.w3.org/2000/svg"
   xmlns:svg="http://www.w3.org/2000/svg"><defs
     id="defs1"><inkscape:path-effect
       effect="fillet_chamfer"
       id="path-effect7"
       is_visible="true"
       lpeversion="1"
       nodesatellites_param="F,0,0,1,0,7.3402935,0,1 @ F,0,0,1,0,8.0141042,0,1 @ F,0,0,1,0,7.8900885,0,1 @ F,0,0,1,0,7.6971295,0,1"
       radius="0"
       unit="px"
       method="auto"
       mode="F"
       chamfer_steps="1"
       flexible="false"
       use_knot_distance="true"
       apply_no_radius="true"
       apply_with_radius="true"
       only_selected="false"
       hide_knots="false" /><linearGradient
       id="linearGradient2"
       inkscape:swatch="gradient"><stop
         style="stop-color:#fefdff;stop-opacity:1;"
         offset="0"
         id="stop2" /><stop
         style="stop-color:#000000;stop-opacity:0;"
         offset="1"
         id="stop3" /></linearGradient><inkscape:path-effect
       effect="fillet_chamfer"
       id="path-effect2"
       is_visible="true"
       lpeversion="1"
       nodesatellites_param="F,0,0,1,0,65.825889,0,1 @ F,0,0,1,0,0,0,1 @ F,0,0,1,0,0.0011646214,0,1 @ F,0,0,1,0,0,0,1"
       radius="0"
       unit="px"
       method="auto"
       mode="F"
       chamfer_steps="1"
       flexible="false"
       use_knot_distance="true"
       apply_no_radius="true"
       apply_with_radius="true"
       only_selected="false"
       hide_knots="false" /><inkscape:path-effect
       effect="fillet_chamfer"
       id="path-effect2-3"
       is_visible="true"
       lpeversion="1"
       nodesatellites_param="F,0,0,1,0,65.825889,0,1 @ F,0,0,1,0,0,0,1 @ F,0,0,1,0,0,0,1 @ F,0,0,1,0,0,0,1"
       radius="0"
       unit="px"
       method="auto"
       mode="F"
       chamfer_steps="1"
       flexible="false"
       use_knot_distance="true"
       apply_no_radius="true"
       apply_with_radius="true"
       only_selected="false"
       hide_knots="false" /><inkscape:path-effect
       effect="fillet_chamfer"
       id="path-effect2-3-5"
       is_visible="true"
       lpeversion="1"
       nodesatellites_param="F,0,0,1,0,65.825889,0,1 @ F,0,0,1,0,0,0,1 @ F,0,0,1,0,0,0,1 @ F,0,0,1,0,0,0,1"
       radius="0"
       unit="px"
       method="auto"
       mode="F"
       chamfer_steps="1"
       flexible="false"
       use_knot_distance="true"
       apply_no_radius="true"
       apply_with_radius="true"
       only_selected="false"
       hide_knots="false" /></defs><sodipodi:namedview
     id="namedview1"
     pagecolor="#ffffff"
     bordercolor="#000000"
     borderopacity="0.25"
     inkscape:showpageshadow="2"
     inkscape:pageopacity="0.0"
     inkscape:pagecheckerboard="0"
     inkscape:deskcolor="#d1d1d1"
     inkscape:zoom="0.64306408"
     inkscape:cx="262.02677"
     inkscape:cy="-198.26951"
     inkscape:window-width="1366"
     inkscape:window-height="697"
     inkscape:window-x="-8"
     inkscape:window-y="-8"
     inkscape:window-maximized="1"
     inkscape:current-layer="g1" /><g
     inkscape:groupmode="layer"
     inkscape:label="Image"
     id="g1"
     transform="translate(-356.78877,-398.02719)"><g
       id="g8"
       transform="translate(32.656155,52.87187)"><path
         style="fill:#41b676;fill-opacity:1;stroke-width:95.9031;stroke-dasharray:none;paint-order:stroke fill markers"
         d="m 676.78674,421.27625 c -1.73216,-0.53698 -5.99261,-1.51274 -8.06529,-1.84716 -6.8005,-1.09725 -14.2743,-1.33426 -21.20728,-0.67253 -3.95621,0.37763 -5.01822,0.36052 -5.48437,-0.0883 l -0.37016,-0.35642 -0.0452,-7.34491 -0.0452,-7.3449 0.47916,-0.51615 c 0.41232,-0.44416 0.58495,-0.51615 1.23765,-0.51615 0.6512,0 0.82562,0.0723 1.23303,0.51117 l 0.47454,0.51116 v 5.95786 5.95784 l 0.44722,-0.0857 c 1.89536,-0.36337 4.41079,-0.48675 9.8795,-0.48464 6.94977,0.003 8.54853,0.14388 16.0186,1.41464 l 0.56919,0.0968 -0.73181,-0.42649 c -2.40638,-1.4024 -6.49244,-2.99034 -9.83885,-3.8236 -3.29288,-0.81994 -8.5106,-1.56191 -11.0153,-1.56642 -0.79922,-0.002 -1.00846,-0.067 -1.46363,-0.45838 l -0.5311,-0.45671 -0.0426,-18.09129 -0.0427,-18.0913 h -1.62424 -1.62424 v 2.74946 c 0,1.71661 -0.0683,2.87787 -0.18165,3.09132 -0.50255,0.94579 -1.8601,1.20371 -2.69589,0.5122 l -0.45628,-0.37754 -0.0484,-4.16996 -0.0483,-4.16994 0.56055,-0.53953 0.56056,-0.53952 h 2.78089 2.7809 v -2.1991 c 0,-3.4291 0.17145,-3.59233 3.77297,-3.59213 9.57005,4.9e-4 18.48386,2.65255 25.06212,7.45644 l 1.59533,1.16501 1.41324,-1.08203 c 4.83496,-3.7018 10.74787,-6.08558 17.54409,-7.07292 1.48807,-0.21617 3.48165,-0.35752 5.9085,-0.41891 5.16495,-0.13066 5.10915,-0.1677 5.11523,3.39579 l 0.004,2.2696 2.92726,0.08 c 1.60999,0.044 3.05803,0.14058 3.21787,0.21463 0.79793,0.36965 0.76649,-0.62821 0.76585,24.31089 -5.1e-4,22.80965 -0.007,23.30093 -0.31751,23.7908 -0.44572,0.7036 -1.07208,0.77427 -3.98736,0.44989 -5.5275,-0.61505 -13.89693,-0.58397 -19.43785,0.0722 -3.51408,0.41613 -6.11959,0.92856 -9.5558,1.87937 -3.12325,0.86422 -3.92637,0.92944 -5.48705,0.44563 z m 2.93269,-4.80475 c 4.86447,-4.57781 13.46762,-7.95649 23.00508,-9.03466 1.11749,-0.12633 2.12374,-0.22969 2.2361,-0.22969 0.16287,0 0.20427,-4.00224 0.20427,-19.7463 v -19.74629 l -2.31741,0.099 c -8.38381,0.35828 -15.3344,2.60608 -20.52936,6.63912 -0.53551,0.41573 -1.04778,0.89585 -1.13839,1.06695 -0.0906,0.17109 -0.31996,0.52092 -0.5097,0.7774 -0.32161,0.43472 -1.19996,2.16565 -1.19996,2.36471 0,0.28796 -0.56059,1.15381 -0.74703,1.15381 -0.23617,0 -0.76382,-0.89627 -0.93741,-1.5923 -0.0574,-0.2301 -0.27702,-0.6175 -0.48807,-0.86088 -0.21105,-0.24337 -0.51422,-0.68731 -0.6737,-0.98651 -0.95365,-1.78915 -5.5305,-4.68257 -9.91988,-6.2712 -3.71341,-1.34398 -8.03623,-2.14968 -12.31888,-2.29602 l -2.72399,-0.0931 v 19.71942 19.71943 l 1.99217,0.18675 c 6.17516,0.57888 11.70326,2.05604 16.79108,4.48676 3.07725,1.47015 5.10725,2.7921 6.91926,4.50587 0.66661,0.63046 1.21446,1.15925 1.21744,1.17509 0.003,0.0159 0.51527,-0.45099 1.13838,-1.03739 z m 7.59026,-0.33307 c 2.243,-0.44421 5.87234,-0.90792 8.74817,-1.11773 3.21117,-0.23427 11.07709,-0.0978 13.66054,0.23698 1.0286,0.13331 1.99826,0.24301 2.15478,0.24378 0.26963,0.002 0.2846,-1.10116 0.2846,-20.97269 v -20.97412 h -1.74822 l -1.74823,1e-5 -0.0234,17.97941 c -0.0171,13.08138 -0.0738,18.06992 -0.20812,18.3116 -0.30678,0.55171 -0.98195,0.7569 -2.85839,0.86866 -4.85823,0.28937 -10.01513,1.35852 -14.11,2.92537 -2.18065,0.83441 -6.24025,2.7992 -5.78886,2.80173 0.0572,2.7e-4 0.79393,-0.13602 1.6371,-0.303 z"
         id="path4-3" /><path
         style="fill:#41b676;fill-opacity:1;stroke-width:0.579975"
         d="m 537.58672,421.6973 c -3.05762,-0.51371 -8.04861,-2.87968 -10.1523,-4.8127 -1.9988,-1.83663 -3.60864,-4.69972 -4.46248,-7.93648 l -0.76111,-2.88522 h 6.32723 c 5.4133,0 6.32722,0.13403 6.32722,0.92796 0,0.51038 0.85446,1.78242 1.89879,2.82673 4.52872,4.52873 14.34052,2.74534 14.34052,-2.6065 0,-4.03831 -1.48956,-5.00052 -11.57006,-7.47409 -8.54975,-2.09792 -12.41756,-4.10951 -14.89166,-7.74483 -3.14767,-4.62506 -3.03843,-11.31132 0.26053,-15.94427 4.04719,-5.68374 15.51134,-8.62263 24.40365,-6.25598 6.17749,1.64411 11.05662,5.99556 11.93958,10.64829 0.20102,1.05935 0.50863,2.29906 0.68354,2.75488 0.26259,0.68428 -0.69186,0.82877 -5.47493,0.82877 h -5.79296 l -1.53445,-2.01177 c -3.73114,-4.89177 -14.26255,-3.61172 -14.26255,1.73355 0,3.63601 2.04214,4.98766 9.6127,6.3625 14.06342,2.55397 18.18667,5.57282 19.12472,14.00229 1.34726,12.10655 -10.59286,20.17808 -26.01598,17.58687 z m 73.66998,0.002 c -1.52634,-0.25663 -4.39722,-1.23731 -6.37973,-2.1793 -15.36245,-7.29954 -18.62588,-31.53004 -5.91761,-43.9373 1.7723,-1.7303 3.93121,-3.3142 4.79761,-3.51974 0.8664,-0.20554 3.14118,-1.02296 5.05511,-1.81647 3.06828,-1.27211 4.07872,-1.40879 8.54362,-1.15576 5.7777,0.32744 10.00793,2.02258 13.97461,5.59991 2.42513,2.18707 6.19051,9.17701 6.19051,11.49186 0,1.28644 -0.15208,1.32131 -5.76263,1.32131 h -5.76264 l -1.31996,-2.34857 c -2.03266,-3.6166 -4.38168,-4.78533 -9.07572,-4.51548 -2.99666,0.17225 -4.33302,0.55252 -5.82952,1.65885 -4.158,3.07388 -6.2017,9.33245 -5.24756,16.0699 1.1039,7.79507 5.3712,12.33429 11.59534,12.33429 4.15571,0 8.46552,-2.85862 9.51043,-6.30813 0.38922,-1.2849 0.61971,-1.35404 3.40002,-1.01999 1.64038,0.19711 4.37341,0.36061 6.07344,0.3634 l 3.09095,0.005 -0.40265,1.88491 c -1.25948,5.8963 -5.87391,11.79222 -11.10298,14.18643 -4.82002,2.20692 -9.85609,2.82208 -15.43064,1.88484 z m 125.48771,0.002 c -7.52737,-1.09269 -15.22914,-7.43843 -18.0078,-14.83713 -1.58346,-4.21632 -2.18542,-12.53342 -1.23332,-17.04064 2.1748,-10.2956 7.85453,-16.98091 16.76482,-19.73302 9.849,-3.04206 20.04704,0.13654 25.8646,8.06159 3.26015,4.44122 4.40259,8.47171 4.40259,15.53205 v 5.99895 h -17.10926 -17.10926 v 1.72441 c 0,2.80744 2.22949,6.65737 4.83271,8.34537 1.89245,1.22708 3.05333,1.52859 5.86795,1.52406 4.17836,-0.007 9.26126,-2.07802 9.87947,-4.0259 0.25287,-0.79661 0.73708,-1.13972 1.36073,-0.9642 0.53248,0.14987 2.58953,0.44624 4.57118,0.65863 4.60095,0.49308 4.99568,1.40188 2.50185,5.76062 -2.91211,5.08987 -6.89469,7.82639 -13.04451,8.96326 -3.77777,0.69835 -4.92457,0.7022 -9.54175,0.0321 z m 15.03144,-32.76637 c 0,-1.80021 -1.43653,-5.34716 -2.77697,-6.85676 -1.48926,-1.67711 -5.33635,-3.24869 -7.95256,-3.24869 -2.61621,0 -6.4633,1.57158 -7.95255,3.24869 -1.34045,1.5096 -2.77699,5.05655 -2.77699,6.85676 v 1.46856 h 10.72954 10.72953 z m 40.40459,32.14793 c -1.22299,-0.28751 -3.37616,-1.46721 -4.78479,-2.62149 -2.51814,-2.06342 -2.56123,-2.07512 -2.56123,-0.69493 0,2.37619 -1.00817,2.79574 -6.71809,2.79574 h -5.32613 l -0.31377,-1.59492 c -0.17261,-0.87722 -0.34126,-16.92801 -0.37477,-35.66844 l -0.0611,-34.07354 h 6.39688 6.3969 v 13.13413 13.13413 l 1.38063,-1.48974 c 0.75936,-0.81936 2.78202,-2.22746 4.4948,-3.12911 2.81618,-1.48252 3.66909,-1.63929 8.91392,-1.63858 5.37978,5.8e-4 6.05175,0.13296 9.27959,1.82599 8.413,4.41266 12.58546,12.248 12.58546,23.6339 0,6.03175 -1.21168,10.44132 -4.27441,15.5554 -2.86143,4.77803 -5.87509,7.57365 -10.54668,9.78369 -3.00821,1.42316 -4.24256,1.67713 -7.91391,1.62833 -2.3924,-0.0318 -5.35045,-0.29305 -6.57338,-0.58056 z m 8.0233,-10.8823 c 2.95696,-1.3467 6.40316,-5.15574 7.24837,-8.01152 1.08668,-3.67159 1.35736,-9.13054 0.60769,-12.25552 -1.49089,-6.21462 -5.36518,-9.76637 -11.32431,-10.38141 -2.64358,-0.27282 -3.65632,-0.0797 -6.22421,1.18733 -1.74968,0.86323 -3.62746,2.34492 -4.37192,3.44961 -1.21667,1.80544 -1.30494,2.55699 -1.30494,11.11168 0,10.84176 0.44413,12.04351 5.35565,14.49102 3.53842,1.76328 6.75161,1.89445 10.01367,0.40881 z M 411.33066,385.8314 v -34.73084 l 1.30495,-0.34973 c 2.76703,-0.74152 29.05476,-0.36425 33.00854,0.47373 9.58598,2.03173 15.02342,7.6311 15.8763,16.34921 0.68484,7.0002 -2.11679,12.66716 -7.65347,15.48097 l -2.5879,1.31521 3.07978,0.97299 c 3.69663,1.16786 6.92889,3.70402 8.23883,6.46447 2.48877,5.24473 2.38101,12.6188 -0.26012,17.79581 -1.40631,2.7566 -5.24417,6.6084 -7.9655,7.99444 -5.32726,2.71335 -7.50923,2.96457 -25.74743,2.96457 h -17.29398 z m 24.68618,23.13134 h 9.51197 l 2.70247,-2.58942 2.70247,-2.58943 -0.32545,-3.5891 c -0.34339,-3.78707 -1.33224,-5.64108 -4.12044,-7.72549 -1.44661,-1.08147 -2.56601,-1.21323 -11.70867,-1.37817 l -10.10912,-0.18237 v 9.37903 c 0,8.31417 0.10417,9.33907 0.91741,9.02699 0.50456,-0.19362 5.19778,-0.35204 10.42936,-0.35204 z m 8.66374,-30.29197 c 3.21327,-1.6754 3.91472,-2.95181 3.98204,-7.24603 0.0728,-4.6361 -0.94213,-6.58053 -4.33889,-8.31342 -1.89661,-0.96758 -3.43898,-1.12654 -10.93093,-1.12654 h -8.72273 v 9.06609 9.06609 l 9.13462,-0.26915 c 6.73903,-0.19855 9.59125,-0.50724 10.87589,-1.17704 z m 126.52978,41.50482 c -0.21264,-0.21265 -0.38606,-11.36993 -0.38533,-24.79393 l 7.4e-4,-24.40726 6.37842,-0.1992 6.37842,-0.19918 v 24.9931 24.99311 h -5.99307 c -3.29621,0 -6.16705,-0.17397 -6.37973,-0.38664 z m 3.33402,-57.85525 c -6.12723,-2.66779 -5.70481,-11.58458 0.64814,-13.68124 1.50967,-0.49823 2.51218,-0.49823 4.02185,0 6.42678,2.12101 6.76742,11.09571 0.52022,13.70595 -2.32955,0.97335 -2.90426,0.97061 -5.19021,-0.0248 z"
         id="path5" /><path
         style="fill:#41b676;fill-opacity:1;stroke-width:0.289497"
         d="m 487.1138,421.18536 c -3.97378,-0.67459 -11.34593,-3.92727 -10.8221,-4.77484 0.12289,-0.19884 0.069,-0.2428 -0.13962,-0.11387 -0.54522,0.33697 -3.90984,-2.54911 -5.96215,-5.11418 -5.93211,-7.41421 -7.71689,-17.20645 -4.76094,-26.12083 1.01174,-3.05116 3.13563,-6.99699 3.70048,-6.8749 0.20241,0.0437 0.28397,-0.0565 0.18124,-0.22266 -0.10273,-0.16623 0.48701,-1.14898 1.31052,-2.1839 1.42346,-1.78888 2.45455,-2.65527 2.98009,-2.50403 0.13125,0.0378 0.16319,-0.0534 0.071,-0.20257 -0.17382,-0.28125 1.1593,-1.40381 3.16434,-2.66453 2.69245,-1.69295 6.66005,-3.20398 9.88977,-3.7664 l 1.83487,-0.31954 v -2.43101 -2.43101 h -2.0058 c -1.95416,0 -2.91566,-0.39433 -2.91566,-1.19576 0,-0.15724 -0.13597,-0.20186 -0.30218,-0.0991 -0.47616,0.29429 -1.11337,-0.41173 -1.30801,-1.44925 -0.22549,-1.202 0.46358,-2.59762 1.56336,-3.16633 1.03112,-0.53321 14.13479,-0.66415 15.59299,-0.15581 1.81834,0.63388 2.35121,2.66299 1.17233,4.46409 -0.849,1.29708 -1.58208,1.6022 -3.84947,1.6022 h -1.86811 v 2.44299 2.443 l 1.37512,0.17953 c 4.64579,0.6066 10.81744,3.48871 14.19135,6.62726 l 0.94684,0.88079 1.36599,-1.36599 c 1.21166,-1.21165 1.32546,-1.43088 1.00726,-1.94039 -0.91188,-1.46015 -0.20604,-3.53329 1.42519,-4.18598 1.60073,-0.64049 2.48119,-0.18102 5.38115,2.80814 2.21563,2.28378 2.38836,2.54907 2.38836,3.66833 0,2.04206 -1.96408,3.3955 -3.87873,2.67281 -0.8434,-0.31835 -0.94749,-0.26773 -2.40047,1.16719 l -1.51883,1.49998 1.13151,2.0498 c 1.59112,2.88241 2.84334,6.83596 3.24237,10.23697 0.73959,6.30363 -0.9609,13.37443 -4.45805,18.5371 -2.29503,3.38801 -6.72275,7.59462 -7.49286,7.11866 -0.21675,-0.13395 -0.27151,-0.092 -0.14569,0.11155 0.51684,0.83624 -5.99058,3.75892 -10.09978,4.53611 -2.13672,0.40413 -8.15989,0.5467 -9.98766,0.23642 z m 9.84292,-5.89164 c 7.87282,-1.88395 14.24616,-8.18312 16.21584,-16.02714 0.79219,-3.15479 0.78361,-7.79753 -0.0202,-10.94585 -2.06854,-8.10163 -8.64781,-14.3924 -16.91937,-16.17744 -2.75252,-0.59401 -7.4066,-0.45018 -10.1324,0.31315 -1.2738,0.3567 -2.59667,0.66672 -2.93971,0.68892 -0.34304,0.0222 -0.57661,0.11662 -0.51902,0.20979 0.0576,0.0932 -0.37824,0.399 -0.96851,0.67959 -1.73044,0.82259 -4.4326,2.86787 -6.04391,4.57468 -3.91652,4.14862 -5.88546,9.18691 -5.88546,15.06019 0,14.41003 13.27559,24.95923 27.21276,21.62411 z m -7.80778,-15.94105 c -4.16606,-1.66266 -5.05054,-7.03216 -1.65013,-10.01774 1.64101,-1.44084 3.53951,-1.77718 6.12869,-1.08576 0.40376,0.10781 1.06089,-0.24718 2.17122,-1.17293 0.87574,-0.73015 2.94727,-2.32056 4.60343,-3.53424 l 3.01117,-2.20671 0.67991,0.79046 c 1.30666,1.51907 1.03819,2.09091 -3.03568,6.46599 -3.60837,3.87519 -3.72085,4.03504 -3.89808,5.53985 -0.39113,3.32093 -2.71295,5.56014 -5.72864,5.52482 -0.86174,-0.0101 -1.88859,-0.14677 -2.28189,-0.30374 z m 23.44064,12.37168 c 0,-0.0601 -0.18381,-0.26185 -0.40847,-0.4483 -0.31278,-0.25958 -0.4589,-0.25741 -0.62372,0.009 -0.13158,0.21289 -0.0931,0.27279 0.099,0.15409 0.17282,-0.10682 0.39604,-0.0618 0.49606,0.10001 0.17896,0.28958 0.43716,0.3988 0.43716,0.18493 z m 2.1879,-3.45774 c 0.10075,-0.44925 0.25561,-0.74439 0.34413,-0.65587 0.2353,0.2353 0.92199,-0.75852 0.93273,-1.34991 0.005,-0.27865 0.11234,-0.50662 0.23839,-0.50662 0.41853,0 1.22621,-2.13438 0.92258,-2.43801 -0.18469,-0.18469 -0.28481,-0.0868 -0.2877,0.28125 -0.004,0.47173 -0.0512,0.49314 -0.28909,0.13028 -0.2048,-0.31243 -0.23671,-0.18379 -0.11375,0.45852 0.14264,0.74505 0.0283,1.01277 -0.69089,1.61795 -0.474,0.39884 -0.95029,1.12798 -1.05842,1.62032 -0.10814,0.49234 -0.38221,1.04919 -0.60906,1.23746 -0.22685,0.18827 -0.34663,0.44882 -0.26617,0.57899 0.0805,0.13018 0.0139,0.31853 -0.14793,0.41853 -0.16183,0.10002 -0.29133,0.337 -0.28779,0.52663 0.0107,0.57344 1.11642,-1.04307 1.31297,-1.91952 z m 3.85168,-9.46034 c -0.0316,-0.70243 -1.08303,2.68028 -1.07981,3.47397 10e-4,0.39805 0.24963,-0.12304 0.55113,-1.15799 0.30152,-1.03496 0.53942,-2.07714 0.52868,-2.31598 z m 0.32937,-1.15799 c 0,-0.31845 -0.11808,-0.57899 -0.2624,-0.57899 -0.14431,0 -0.19425,0.26054 -0.11098,0.57899 0.0833,0.31845 0.20135,0.579 0.26239,0.579 0.0611,0 0.11099,-0.26055 0.11099,-0.579 z"
         id="path6" /><g
         id="g6"
         transform="matrix(1.0006523,0,0,1.0006523,35.40157,18.646265)"><path
           style="fill:#41b676;stroke:#fefdff;stroke-width:5.73193;stroke-dasharray:none;stroke-opacity:1"
           id="path2"
           inkscape:path-effect="#path-effect2"
           sodipodi:type="arc"
           sodipodi:cx="420.92908"
           sodipodi:cy="287.43918"
           sodipodi:rx="85.878914"
           sodipodi:ry="17.380257"
           d="m 445.39897,304.10372 c -7.75494,0.46569 -15.96815,0.71572 -24.46989,0.71572 -47.4277,0 -85.87582,-7.78078 -85.87892,-17.3791 0,-6.4e-4 0,-0.002 0,-0.002 0.003,-9.59831 38.45122,-17.37909 85.87892,-17.37909 8.50175,0 16.71495,0.25002 24.46989,0.71571 35.07868,2.10651 35.07868,31.22258 0,33.32909 z"
           transform="matrix(0.6872262,0,0,0.47350552,61.811181,231.15613)" /><path
           style="fill:#41b676;stroke:#fefdff;stroke-width:10.3622;stroke-dasharray:none;stroke-opacity:1"
           id="path2-9"
           inkscape:path-effect="#path-effect2-3"
           sodipodi:type="arc"
           sodipodi:cx="420.92908"
           sodipodi:cy="287.43918"
           sodipodi:rx="85.878914"
           sodipodi:ry="17.380257"
           d="m 445.39897,304.10372 c -7.75494,0.46569 -15.96815,0.71572 -24.46989,0.71572 -47.42962,0 -85.87892,-7.78141 -85.87892,-17.38026 0,-9.59885 38.4493,-17.38026 85.87892,-17.38026 8.50175,0 16.71495,0.25002 24.46989,0.71571 35.07868,2.10651 35.07868,31.22258 0,33.32909 z"
           transform="matrix(0.37869882,0,0,0.35138593,206.45142,290.37834)" /><path
           style="fill:#41b676;stroke:#fefdff;stroke-width:10.3622;stroke-dasharray:none;stroke-opacity:1"
           id="path2-9-5"
           inkscape:path-effect="#path-effect2-3-5"
           sodipodi:type="arc"
           sodipodi:cx="420.92908"
           sodipodi:cy="287.43918"
           sodipodi:rx="85.878914"
           sodipodi:ry="17.380257"
           d="m 445.39897,304.10372 c -7.75494,0.46569 -15.96815,0.71572 -24.46989,0.71572 -47.42962,0 -85.87892,-7.78141 -85.87892,-17.38026 0,-9.59885 38.4493,-17.38026 85.87892,-17.38026 8.50175,0 16.71495,0.25002 24.46989,0.71571 35.07868,2.10651 35.07868,31.22258 0,33.32909 z"
           transform="matrix(0.37869882,0,0,0.35138593,206.09723,238.38715)" /></g><rect
         style="fill:#41b676;fill-opacity:1;stroke:#fefdff;stroke-width:0;stroke-linecap:butt;stroke-linejoin:bevel;stroke-dasharray:none;stroke-opacity:1;paint-order:markers fill stroke"
         id="rect7"
         width="3.3503129"
         height="26.691343"
         x="641.6308"
         y="377.33585" /></g></g></svg>
